<?xml version="1.0" encoding="UTF-8"?>
<!-- Generator: visioncortex VTracer 0.6.5 -->
<svg version="1.1" xmlns="http://www.w3.org/2000/svg" width="960" height="622">
<path d="M0,0 L42,0 L56,25 L69,48 L78,63 L86,77 L91,86 L100,101 L106,112 L193,113 L197,118 L213,146 L227,170 L233,180 L233,183 L-104,183 L-103,178 L-101,178 L-100,174 L-94,163 L-83,144 L-74,129 L-68,118 L-65,113 L26,113 L20,103 L14,93 L8,82 L-7,56 L-16,41 L-19,35 L-17,30 L-10,18 L-4,7 Z " fill="#FFFFFF" transform="translate(311,2)"/>
<path d="M0,0 L2,0 L14,21 L22,35 L28,45 L41,68 L46,76 L52,87 L57,95 L62,104 L70,118 L82,139 L90,152 L96,163 L103,175 L112,190 L117,200 L123,209 L126,215 L132,226 L132,228 L134,228 L146,250 L154,263 L160,274 L166,284 L170,292 L89,292 L76,269 L65,250 L50,224 L45,215 L41,220 L29,241 L14,267 L-1,292 L-42,292 L-48,281 L-61,259 L-59,253 L-47,232 L-39,218 L-24,192 L-14,175 L1,149 L3,143 L-7,125 L-15,111 L-25,94 L-35,77 L-39,70 L-38,65 L-30,52 L-25,43 L-14,24 L-9,15 Z " fill="#FFFFFF" transform="translate(353,308)"/>
<path d="M0,0 L2,0 L11,16 L19,30 L24,39 L32,52 L38,63 L41,69 L28,92 L21,103 L15,114 L6,130 L-3,145 L-4,148 L87,148 L98,166 L104,177 L106,183 L100,193 L94,204 L87,216 L-44,217 L-47,222 L-57,238 L-61,246 L-67,256 L-78,275 L-83,284 L-88,292 L-168,292 L-165,285 L-157,271 L-148,256 L-139,240 L-127,220 L-121,209 L-110,190 L-100,173 L-87,150 L-74,128 L-73,125 L-71,125 L-69,119 L-63,109 L-59,102 L-48,83 L-38,65 L-30,52 L-29,49 L-27,49 L-25,43 L-11,19 L-5,8 Z " fill="#FFFFFF" transform="translate(724,119)"/>
<path d="M0,0 L80,0 L85,9 L96,28 L104,42 L118,66 L124,76 L124,78 L127,76 L134,62 L144,45 L154,28 L157,22 L159,22 L160,18 L165,8 L167,8 L169,2 L170,0 L211,0 L221,18 L230,33 L228,39 L220,53 L212,67 L207,75 L201,86 L188,108 L182,119 L174,133 L167,144 L166,149 L172,159 L178,170 L187,186 L194,197 L200,209 L205,216 L208,224 L200,239 L194,249 L187,261 L178,277 L170,291 L168,293 L160,278 L153,267 L147,256 L138,240 L136,235 L134,235 L127,221 L122,212 L122,210 L120,210 L112,196 L111,191 L109,191 L101,177 L100,172 L98,172 L89,155 L82,143 L72,126 L63,110 L55,97 L47,83 L40,71 L35,62 L26,47 L24,43 L10,19 L7,13 L0,2 Z " fill="#000000" transform="translate(447,2)"/>
<path d="M0,0 L1,2 L-2,8 L-10,22 L-14,29 L-16,29 L-17,34 L-23,44 L-33,61 L-36,67 L-39,70 L-128,70 L-126,75 L-118,88 L-114,95 L-108,106 L-99,121 L-93,132 L-84,147 L-85,152 L-94,167 L-100,177 L-103,183 L-144,183 L-148,175 L-153,167 L-165,146 L-167,140 L-169,140 L-178,124 L-183,115 L-197,91 L-206,75 L-208,71 L-294,70 L-297,69 L-304,56 L-313,41 L-323,24 L-332,8 L-335,3 L-335,1 Z " fill="#000000" transform="translate(761,417)"/>
<path d="M0,0 L79,0 L73,12 L65,26 L55,43 L44,62 L33,81 L27,91 L21,102 L10,121 L4,131 L-7,150 L-13,161 L-21,174 L-24,181 L-26,181 L-28,187 L-35,198 L-41,209 L-53,230 L-65,251 L-78,273 L-83,281 L-86,287 L-89,292 L-93,287 L-99,276 L-109,259 L-119,242 L-129,225 L-128,220 L-116,200 L-106,182 L-97,167 L-92,157 L-90,157 L-88,151 L-84,144 L-175,144 L-180,136 L-180,134 L-182,134 L-188,122 L-194,113 L-193,106 L-188,97 L-187,95 L-185,95 L-184,91 L-181,85 L-178,80 L-176,80 L-176,77 L-174,76 L-44,75 L-39,66 L-37,66 L-36,61 L-26,44 L-14,23 L-5,8 L-1,1 Z " fill="#000000" transform="translate(334,191)"/>
</svg>
