<?xml version="1.0" encoding="UTF-8"?>
<!-- Generator: visioncortex VTracer 0.6.5 -->
<svg version="1.1" xmlns="http://www.w3.org/2000/svg" width="960" height="622">
<path d="M0,0 L41,0 L48,12 L56,25 L62,36 L72,54 L78,63 L83,73 L89,82 L94,92 L100,102 L105,111 L193,112 L199,123 L210,142 L223,165 L232,180 L232,182 L-104,182 L-103,177 L-97,167 L-93,161 L-87,150 L-74,127 L-65,112 L25,112 L19,102 L13,92 L7,81 L-8,55 L-17,40 L-20,35 L-18,31 L-7,12 L-1,1 Z " fill="#FFFFFF" transform="translate(312,3)"/>
<path d="M0,0 L3,1 L11,15 L22,34 L30,48 L35,57 L44,72 L52,86 L61,102 L76,127 L82,138 L88,149 L100,169 L111,188 L116,197 L123,208 L128,218 L138,235 L148,252 L154,263 L165,282 L170,291 L169,292 L143,292 L89,291 L80,275 L68,254 L59,239 L47,218 L46,214 L42,218 L28,243 L12,270 L-1,292 L-40,292 L-46,283 L-58,262 L-60,259 L-59,253 L-47,232 L-39,218 L-24,192 L-14,175 L1,149 L3,146 L2,140 L-13,114 L-25,93 L-35,76 L-39,68 L-27,47 L-13,23 L-1,2 Z " fill="#FFFFFF" transform="translate(353,308)"/>
<path d="M0,0 L2,0 L11,16 L18,28 L27,44 L37,61 L41,68 L39,73 L29,91 L23,101 L11,122 L7,130 L5,130 L4,134 L-4,148 L87,148 L100,170 L106,181 L104,187 L96,200 L90,211 L87,216 L-44,217 L-52,231 L-58,241 L-64,252 L-76,273 L-82,283 L-87,292 L-167,292 L-165,286 L-152,264 L-145,252 L-139,241 L-131,227 L-117,203 L-104,181 L-98,170 L-97,168 L-95,168 L-94,163 L-88,154 L-82,142 L-76,132 L-61,106 L-51,89 L-38,66 L-32,57 L-28,49 L-16,28 L-7,13 L-1,2 Z " fill="#FFFFFF" transform="translate(723,119)"/>
<path d="M0,0 L335,0 L333,6 L325,20 L317,34 L306,53 L302,60 L300,60 L299,66 L297,66 L296,69 L206,69 L212,80 L217,88 L221,95 L227,106 L236,121 L242,132 L250,146 L251,148 L242,164 L232,181 L231,182 L191,182 L183,169 L177,159 L171,148 L168,142 L168,140 L166,140 L157,124 L152,115 L138,91 L129,75 L126,70 L38,69 L32,57 L29,52 L23,42 L14,26 L6,13 L0,2 Z " fill="#000000" transform="translate(426,417)"/>
<path d="M0,0 L80,1 L85,10 L91,20 L97,30 L103,41 L115,61 L121,72 L124,78 L127,76 L134,62 L144,45 L154,28 L157,22 L159,22 L160,18 L165,8 L167,8 L169,2 L170,1 L210,1 L213,6 L213,8 L215,8 L221,20 L227,29 L229,33 L228,39 L220,53 L212,67 L207,75 L201,86 L188,108 L182,119 L174,133 L168,142 L166,146 L166,152 L169,155 L172,160 L172,163 L174,163 L178,171 L188,188 L200,209 L207,221 L207,226 L197,243 L191,254 L186,261 L180,273 L169,291 L166,290 L157,274 L148,259 L142,248 L134,235 L128,224 L121,212 L115,202 L111,194 L111,192 L109,192 L102,178 L92,162 L86,150 L81,143 L75,132 L62,110 L56,99 L53,93 L53,91 L51,91 L45,79 L40,71 L40,68 L37,67 L27,49 L13,25 L7,14 L0,3 Z " fill="#000000" transform="translate(447,2)"/>
<path d="M0,0 L79,0 L77,5 L65,27 L60,35 L48,56 L39,71 L33,82 L27,92 L26,95 L24,95 L22,101 L8,125 L-4,146 L-16,167 L-24,181 L-30,191 L-37,202 L-43,214 L-48,222 L-58,239 L-68,257 L-81,279 L-88,291 L-91,288 L-97,279 L-103,268 L-112,253 L-118,242 L-126,228 L-128,225 L-127,220 L-122,211 L-114,197 L-104,179 L-96,167 L-91,157 L-85,147 L-84,144 L-174,144 L-179,136 L-179,134 L-181,134 L-186,124 L-186,122 L-188,122 L-192,114 L-193,113 L-192,106 L-186,96 L-180,85 L-174,76 L-43,76 L-41,70 L-26,45 L-18,31 L-9,15 Z " fill="#000000" transform="translate(334,191)"/>
<path d="M0,0 L328,0 L328,1 L8,1 L8,3 L6,3 L6,6 L8,7 L8,11 L5,11 L0,2 Z " fill="#68829E" transform="translate(426,417)"/>
</svg>
