<?xml version="1.0" encoding="UTF-8"?>
<!-- Generator: visioncortex VTracer 0.6.5 -->
<svg version="1.1" xmlns="http://www.w3.org/2000/svg" width="960" height="622">
<path d="M0,0 L3,4 L15,25 L20,33 L30,34 L29,39 L28,41 L-12,41 L-17,32 L-16,28 L-6,10 Z " fill="#FFFFFF" transform="translate(448,270)"/>
<path d="M0,0 L7,0 L23,28 L26,33 L25,38 L21,44 L-15,44 L-10,34 L3,12 L3,7 L0,2 Z " fill="#FFFFFF" transform="translate(491,304)"/>
<path d="M0,0 L12,0 L22,17 L29,29 L29,31 L-10,32 L-15,40 L-19,35 L-17,30 L-7,13 L-1,2 Z " fill="#FFFFFF" transform="translate(500,254)"/>
<path d="M0,0 L39,0 L44,8 L43,13 L30,36 L26,40 L11,13 L7,7 L-3,6 Z " fill="#000000" transform="translate(494,291)"/>
<path d="M0,0 L35,0 L30,10 L20,27 L16,35 L20,41 L20,43 L13,43 L5,29 L-1,19 L-6,9 Z " fill="#000000" transform="translate(458,254)"/>
<path d="M0,0 L4,4 L3,8 L-12,35 L-16,40 L-26,40 L-38,20 L-43,11 L-43,9 L-4,8 Z " fill="#000000" transform="translate(484,308)"/>
</svg>
