<?xml version="1.0" encoding="UTF-8"?>
<!-- Generator: visioncortex VTracer 0.6.5 -->
<svg version="1.1" xmlns="http://www.w3.org/2000/svg" width="960" height="622">
<path d="M0,0 L18,0 L25,11 L26,15 L6,16 L-1,28 L-3,29 L-9,19 L-8,15 Z " fill="#FFFFFF" transform="translate(487,265)"/>
<path d="M0,0 L13,0 L21,13 L23,18 L15,32 L14,33 L-2,33 L3,23 L7,15 L0,2 Z " fill="#FFFFFF" transform="translate(491,304)"/>
<path d="M0,0 L3,3 L10,15 L10,17 L27,17 L26,21 L22,29 L1,29 L-7,15 L-6,11 Z " fill="#FFFFFF" transform="translate(451,287)"/>
<path d="M0,0 L4,4 L7,10 L5,16 L-2,28 L-3,29 L-20,29 L-27,15 L-20,14 L-7,14 L-5,9 Z " fill="#000000" transform="translate(484,308)"/>
<path d="M0,0 L16,0 L10,12 L6,19 L8,19 L14,30 L14,32 L1,32 L-8,17 L-7,12 L-5,8 L-3,8 L-2,3 Z " fill="#000000" transform="translate(464,265)"/>
<path d="M0,0 L20,0 L26,9 L28,13 L27,18 L21,29 L18,25 L11,13 L11,11 L-6,11 L-1,1 Z " fill="#000000" transform="translate(497,286)"/>
</svg>
