<?xml version="1.0" encoding="UTF-8"?>
<!-- Generator: visioncortex VTracer 0.6.5 -->
<svg version="1.1" xmlns="http://www.w3.org/2000/svg" width="960" height="622">
<path d="M0,0 L4,4 L12,18 L20,31 L26,42 L34,55 L40,66 L49,82 L57,96 L64,107 L70,118 L76,128 L82,139 L87,147 L93,158 L108,184 L120,205 L135,231 L145,248 L154,264 L163,279 L167,286 L167,289 L89,289 L85,285 L72,262 L62,245 L50,224 L44,213 L40,218 L26,243 L10,270 L-1,289 L-41,289 L-47,280 L-61,255 L-59,250 L-46,227 L-32,203 L-23,187 L-9,163 L2,144 L1,140 L-5,129 L-17,108 L-28,89 L-39,70 L-38,65 L-24,42 L-18,31 L-10,18 L-5,8 Z " fill="#FFFFFF" transform="translate(355,308)"/>
<path d="M0,0 L41,0 L49,13 L55,23 L61,34 L71,52 L77,61 L82,71 L88,80 L93,90 L99,100 L105,111 L191,112 L199,125 L211,146 L224,168 L230,179 L230,181 L-103,181 L-102,177 L-94,163 L-89,154 L-79,137 L-68,119 L-64,112 L24,112 L22,107 L12,90 L6,79 L-9,53 L-18,38 L-19,33 L-2,4 Z " fill="#FFFFFF" transform="translate(313,5)"/>
<path d="M0,0 L3,1 L13,19 L27,43 L36,59 L41,68 L29,90 L19,107 L9,124 L4,133 L-2,143 L-3,146 L86,146 L94,159 L105,178 L104,183 L98,194 L88,211 L86,214 L-43,215 L-51,228 L-65,253 L-79,277 L-85,287 L-88,289 L-164,289 L-166,287 L-154,266 L-140,242 L-132,228 L-118,204 L-109,188 L-99,171 L-86,148 L-73,126 L-67,115 L-54,93 L-42,72 L-34,58 L-27,47 L-21,36 L-8,13 Z " fill="#FFFFFF" transform="translate(721,121)"/>
<path d="M0,0 L79,0 L85,9 L97,30 L111,54 L119,68 L124,77 L129,68 L143,44 L154,25 L157,19 L159,19 L160,15 L168,1 L169,0 L209,0 L223,25 L227,31 L228,35 L222,47 L214,60 L207,72 L201,83 L188,105 L182,116 L174,130 L166,143 L165,147 L171,158 L184,181 L193,196 L199,206 L204,216 L206,218 L205,224 L195,240 L190,250 L184,259 L180,267 L167,289 L164,286 L161,280 L157,274 L157,271 L155,271 L147,256 L146,252 L144,252 L136,237 L130,227 L116,203 L106,185 L99,173 L99,171 L97,171 L90,157 L80,140 L74,130 L67,118 L54,96 L47,82 L41,73 L36,64 L32,58 L32,55 L30,55 L26,47 L12,23 L2,5 Z " fill="#000000" transform="translate(447,5)"/>
<path d="M0,0 L332,0 L330,6 L321,21 L315,32 L303,53 L297,62 L294,68 L293,69 L205,69 L208,76 L216,89 L220,96 L226,107 L235,122 L241,133 L248,145 L247,150 L237,167 L229,180 L189,180 L183,172 L176,160 L170,149 L167,143 L167,141 L165,141 L156,125 L151,116 L137,92 L128,76 L125,71 L125,69 L38,69 L33,59 L30,54 L24,44 L16,30 L5,12 L0,2 Z " fill="#000000" transform="translate(427,416)"/>
<path d="M0,0 L78,0 L79,2 L64,28 L50,52 L44,62 L38,73 L30,87 L16,111 L1,137 L-15,165 L-27,186 L-36,201 L-47,220 L-55,234 L-68,257 L-78,274 L-85,285 L-87,289 L-90,286 L-98,272 L-108,255 L-117,239 L-127,222 L-126,218 L-116,200 L-106,183 L-98,169 L-92,159 L-91,156 L-89,156 L-87,150 L-84,144 L-172,143 L-179,132 L-184,123 L-184,121 L-186,121 L-188,114 L-190,114 L-192,109 L-187,100 L-180,88 L-175,79 L-172,75 L-43,74 L-37,64 L-31,53 L-16,27 L-4,7 Z " fill="#000000" transform="translate(335,192)"/>
<path d="M0,0 L3,4 L3,6 L-140,6 L-139,4 L-2,4 L-2,2 L0,2 Z " fill="#FFFFFF" transform="translate(540,180)"/>
</svg>
