<?xml version="1.0" encoding="UTF-8"?>
<!-- Generator: visioncortex VTracer 0.6.5 -->
<svg version="1.1" xmlns="http://www.w3.org/2000/svg" width="960" height="622">
<path d="M0,0 L4,4 L11,17 L21,34 L34,57 L44,74 L48,81 L47,87 L43,94 L-54,94 L-47,80 L-36,61 L-22,37 L-10,16 L-1,1 Z " fill="#FFFFFF" transform="translate(553,218)"/>
<path d="M0,0 L2,0 L10,14 L24,38 L33,54 L41,68 L55,92 L55,94 L-41,94 L-46,86 L-47,82 L-33,57 L-19,33 L-7,12 Z " fill="#FFFFFF" transform="translate(467,308)"/>
<path d="M0,0 L14,0 L30,28 L45,54 L56,73 L61,83 L54,84 L-48,83 L-40,68 L-27,46 L-15,25 L-1,1 Z " fill="#FFFFFF" transform="translate(426,200)"/>
<path d="M0,0 L97,0 L102,9 L101,14 L91,31 L86,40 L73,63 L63,80 L55,94 L51,89 L40,70 L25,44 L11,20 L0,1 Z " fill="#000000" transform="translate(447,200)"/>
<path d="M0,0 L96,0 L94,5 L80,29 L67,52 L57,69 L49,83 L43,93 L41,93 L31,76 L18,53 L3,27 L-3,17 L-6,12 L-4,7 Z " fill="#000000" transform="translate(374,290)"/>
<path d="M0,0 L108,0 L100,15 L87,37 L75,58 L64,77 L61,83 L47,83 L37,66 L22,40 L14,26 L0,2 Z " fill="#000000" transform="translate(483,319)"/>
</svg>
