<?xml version="1.0" encoding="UTF-8"?>
<!-- Generator: visioncortex VTracer 0.6.5 -->
<svg version="1.1" xmlns="http://www.w3.org/2000/svg" width="960" height="622">
<path d="M0,0 L3,1 L13,19 L23,36 L35,57 L48,79 L54,90 L64,107 L70,117 L76,128 L91,154 L92,158 L94,158 L97,164 L103,174 L109,185 L121,206 L130,221 L135,230 L149,254 L156,266 L162,277 L166,283 L166,285 L86,285 L76,269 L63,246 L49,222 L43,211 L40,214 L34,225 L20,250 L7,272 L-1,285 L-41,285 L-57,258 L-61,250 L-48,227 L-34,203 L-25,187 L-11,163 L1,142 L1,139 L-5,129 L-11,118 L-20,102 L-34,78 L-39,68 L-33,57 L-20,35 L-11,19 L-4,7 Z " fill="#FFFFFF" transform="translate(357,308)"/>
<path d="M0,0 L41,0 L47,11 L56,27 L71,53 L75,60 L85,76 L90,86 L96,96 L103,109 L186,110 L189,113 L205,141 L219,165 L226,177 L226,179 L-103,179 L-98,169 L-86,148 L-76,131 L-69,119 L-64,110 L23,110 L11,89 L-1,68 L-15,44 L-19,37 L-19,32 L-8,13 Z " fill="#FFFFFF" transform="translate(316,9)"/>
<path d="M0,0 L80,0 L83,6 L90,18 L104,42 L113,58 L122,74 L124,75 L126,69 L136,52 L151,26 L156,17 L157,15 L159,15 L160,11 L166,1 L170,0 L206,0 L216,17 L226,34 L224,39 L217,51 L209,65 L201,79 L188,101 L182,112 L174,126 L166,139 L164,143 L165,148 L177,169 L183,179 L195,200 L201,210 L203,215 L202,221 L195,233 L187,246 L184,252 L178,262 L172,273 L165,285 L164,283 L162,283 L157,274 L144,251 L137,239 L136,235 L134,235 L129,225 L120,210 L114,199 L111,194 L111,191 L109,191 L100,176 L94,165 L87,153 L81,142 L71,125 L63,111 L54,96 L53,91 L51,91 L45,80 L38,67 L28,51 L22,40 L11,21 L4,9 L0,2 Z " fill="#000000" transform="translate(447,9)"/>
<path d="M0,0 L4,5 L20,33 L32,53 L38,64 L41,69 L28,92 L21,103 L15,114 L-1,142 L-3,145 L85,145 L96,165 L103,177 L102,183 L96,193 L85,212 L84,213 L-42,214 L-48,223 L-54,233 L-60,244 L-69,260 L-75,270 L-84,285 L-164,285 L-162,280 L-154,266 L-144,249 L-138,239 L-132,228 L-117,202 L-108,187 L-102,176 L-92,159 L-79,136 L-71,123 L-65,112 L-50,86 L-41,71 L-35,60 L-27,46 L-14,24 L-5,9 Z " fill="#FFFFFF" transform="translate(718,122)"/>
<path d="M0,0 L328,0 L322,12 L312,29 L304,43 L292,64 L288,69 L202,69 L215,91 L221,102 L229,116 L236,128 L245,143 L243,148 L233,166 L225,179 L186,179 L182,174 L175,162 L169,151 L166,145 L166,143 L164,143 L155,127 L150,118 L136,94 L127,78 L121,69 L39,69 L28,50 L22,40 L8,16 L0,2 Z " fill="#000000" transform="translate(428,414)"/>
<path d="M0,0 L80,0 L74,12 L64,29 L50,53 L36,78 L28,91 L19,107 L13,117 L8,126 L-6,150 L-19,173 L-33,197 L-48,223 L-62,247 L-74,268 L-81,279 L-83,283 L-85,283 L-86,279 L-88,279 L-93,269 L-101,256 L-110,240 L-120,223 L-124,215 L-117,204 L-111,193 L-105,182 L-94,163 L-84,146 L-81,140 L-168,140 L-173,131 L-173,129 L-175,129 L-178,120 L-180,120 L-184,111 L-186,110 L-187,105 L-179,91 L-174,82 L-172,82 L-169,73 L-168,72 L-40,72 L-38,66 L-28,49 L-13,23 L-4,7 L-2,7 L-1,2 Z " fill="#000000" transform="translate(335,195)"/>
</svg>
