<?xml version="1.0" encoding="UTF-8"?>
<!-- Generator: visioncortex VTracer 0.6.5 -->
<svg version="1.1" xmlns="http://www.w3.org/2000/svg" width="960" height="622">
<path d="M0,0 L196,0 L199,2 L183,29 L171,50 L163,63 L160,69 L138,70 L144,81 L148,88 L146,93 L134,114 L129,123 L88,123 L77,104 L63,80 L57,70 L39,69 L31,56 L15,28 L8,17 L2,6 L0,3 Z " fill="#000000" transform="translate(460,357)"/>
<path d="M0,0 L2,0 L15,23 L26,42 L37,60 L41,68 L52,87 L62,104 L70,118 L84,142 L90,152 L96,163 L101,172 L20,172 L11,156 L11,154 L9,154 L7,160 L0,172 L-41,172 L-45,167 L-51,156 L-61,139 L-59,133 L-43,106 L-31,85 L-34,78 L-39,70 L-37,64 L-25,43 L-11,19 Z " fill="#FFFFFF" transform="translate(422,308)"/>
<path d="M0,0 L40,0 L53,22 L67,47 L71,53 L89,54 L95,63 L105,81 L115,98 L128,121 L128,123 L-70,123 L-68,117 L-58,100 L-42,72 L-32,55 L-31,54 L-10,53 L-20,36 L-18,31 L-9,15 Z " fill="#FFFFFF" transform="translate(381,121)"/>
<path d="M0,0 L2,0 L15,23 L25,40 L36,58 L41,67 L39,73 L32,85 L31,88 L53,88 L62,104 L72,121 L70,126 L58,147 L53,156 L-9,157 L-15,166 L-19,172 L-98,172 L-96,166 L-82,142 L-66,114 L-52,90 L-37,64 L-22,38 L-7,12 Z " fill="#FFFFFF" transform="translate(620,179)"/>
<path d="M0,0 L79,0 L87,13 L89,19 L93,15 L101,1 L141,0 L147,9 L152,19 L160,33 L161,36 L145,64 L133,85 L132,87 L130,87 L139,103 L138,107 L123,134 L114,149 L100,173 L96,168 L88,155 L84,147 L79,139 L73,128 L73,126 L71,126 L66,116 L56,99 L44,78 L30,54 L23,42 L17,31 L6,13 L0,2 Z " fill="#000000" transform="translate(447,121)"/>
<path d="M0,0 L64,0 L80,1 L72,15 L59,38 L45,62 L36,78 L25,97 L10,123 L-4,147 L-19,173 L-22,170 L-31,154 L-37,144 L-45,130 L-57,109 L-59,106 L-58,101 L-49,85 L-71,85 L-86,59 L-88,56 L-88,53 L-90,53 L-89,48 L-79,30 L-71,17 L-8,17 L-7,13 L-1,2 Z " fill="#000000" transform="translate(368,250)"/>
</svg>
