<?xml version="1.0" encoding="UTF-8"?>
<!-- Generator: visioncortex VTracer 0.6.5 -->
<svg version="1.1" xmlns="http://www.w3.org/2000/svg" width="960" height="622">
<path d="M0,0 L4,4 L16,25 L22,35 L27,44 L40,67 L50,84 L58,97 L64,108 L77,131 L93,158 L102,174 L114,195 L117,200 L117,202 L106,203 L37,202 L27,184 L19,171 L17,171 L7,189 L-1,202 L-5,203 L-41,203 L-47,194 L-57,176 L-61,169 L-59,163 L-47,142 L-36,123 L-23,101 L-24,96 L-33,81 L-39,70 L-38,65 L-23,39 L-8,13 Z " fill="#FFFFFF" transform="translate(405,308)"/>
<path d="M0,0 L3,4 L13,22 L23,39 L34,58 L40,68 L38,74 L30,88 L25,97 L22,103 L60,104 L66,113 L73,125 L79,136 L78,142 L64,166 L60,172 L-19,173 L-29,190 L-37,204 L-117,204 L-115,198 L-98,169 L-83,143 L-68,117 L-56,96 L-46,79 L-34,58 L-20,34 L-8,13 Z " fill="#FFFFFF" transform="translate(647,163)"/>
<path d="M0,0 L39,0 L43,5 L49,16 L60,35 L71,54 L79,68 L115,69 L131,96 L144,119 L154,136 L154,138 L-79,138 L-77,132 L-63,108 L-51,87 L-43,73 L-40,69 L-2,68 L-12,50 L-20,37 L-19,32 L-6,9 Z " fill="#FFFFFF" transform="translate(364,91)"/>
<path d="M0,0 L80,0 L94,24 L98,31 L98,33 L100,33 L102,28 L110,14 L118,1 L119,0 L159,0 L168,15 L175,27 L178,32 L177,37 L171,48 L156,74 L142,98 L140,101 L141,106 L152,125 L157,132 L155,137 L147,151 L135,172 L119,199 L116,202 L104,181 L93,162 L83,145 L80,140 L80,137 L78,137 L73,127 L67,117 L55,96 L44,77 L35,61 L33,56 L31,56 L23,40 L17,31 L11,20 L5,10 Z " fill="#000000" transform="translate(447,92)"/>
<path d="M0,0 L233,0 L231,6 L217,30 L203,54 L195,68 L194,69 L156,70 L164,84 L171,96 L174,101 L173,107 L167,116 L155,137 L114,137 L109,128 L100,112 L96,106 L90,95 L79,76 L76,71 L76,69 L40,69 L34,60 L23,40 L11,20 L0,1 Z " fill="#000000" transform="translate(451,373)"/>
<path d="M0,0 L80,0 L72,15 L62,32 L49,55 L34,81 L20,105 L8,126 L-6,150 L-21,176 L-36,202 L-39,199 L-54,173 L-70,145 L-76,136 L-75,130 L-59,102 L-58,100 L-96,99 L-102,90 L-116,66 L-114,61 L-104,43 L-97,31 L-17,30 L-8,14 Z " fill="#000000" transform="translate(359,236)"/>
<path d="M0,0 L2,0 L2,3 L0,3 L0,9 L-2,9 L-2,11 L-4,11 L-4,13 L-6,13 L-6,17 L-8,17 L-8,21 L-10,21 L-11,25 L-12,27 L64,27 L64,25 L66,25 L64,30 L-16,30 L-14,24 Z " fill="#FFFFFF" transform="translate(546,337)"/>
<path d="M0,0 L1,0 L1,5 L-3,14 L221,15 L221,9 L225,14 L225,16 L-8,16 L-6,10 Z " fill="#FFFFFF" transform="translate(293,213)"/>
<path d="M0,0 L233,0 L232,2 L5,1 L6,6 L7,6 L7,11 L3,6 Z " fill="#000000" transform="translate(451,373)"/>
</svg>
