<?xml version="1.0" encoding="UTF-8"?>
<!-- Generator: visioncortex VTracer 0.6.5 -->
<svg version="1.1" xmlns="http://www.w3.org/2000/svg" width="960" height="622">
<path d="M0,0 L2,0 L7,10 L16,25 L29,48 L36,59 L42,70 L51,86 L67,113 L73,124 L78,132 L84,143 L94,160 L100,170 L106,181 L121,207 L133,228 L144,246 L150,257 L158,271 L158,272 L78,272 L68,256 L58,238 L44,214 L39,205 L37,204 L35,209 L29,220 L21,234 L13,248 L1,269 L-1,272 L-42,272 L-51,256 L-61,239 L-60,234 L-47,211 L-37,194 L-22,168 L-9,146 L-8,143 L-6,143 L-5,139 L-3,133 L-16,110 L-30,86 L-40,69 L-32,55 L-22,37 L-8,13 Z " fill="#FFFFFF" transform="translate(365,308)"/>
<path d="M0,0 L2,0 L17,26 L33,53 L41,67 L40,72 L26,96 L11,122 L2,138 L82,138 L96,163 L101,171 L99,176 L86,199 L82,206 L-38,207 L-52,231 L-60,244 L-66,255 L-75,271 L-76,272 L-156,272 L-149,258 L-136,236 L-123,213 L-110,191 L-94,163 L-80,139 L-68,118 L-58,101 L-45,78 L-35,61 L-19,33 L-9,16 Z " fill="#FFFFFF" transform="translate(706,129)"/>
<path d="M0,0 L313,0 L311,5 L295,33 L287,46 L281,57 L274,69 L194,69 L209,95 L222,117 L228,128 L233,137 L232,142 L221,161 L214,173 L174,173 L168,163 L157,144 L141,116 L135,107 L129,96 L119,78 L114,70 L38,69 L26,48 L16,31 L4,10 L-1,1 Z " fill="#000000" transform="translate(432,407)"/>
<path d="M0,0 L41,0 L55,24 L68,47 L79,65 L85,76 L94,92 L100,102 L176,103 L186,120 L201,146 L213,167 L215,172 L-99,172 L-91,157 L-77,133 L-60,104 L-59,103 L19,103 L13,92 L4,76 L-4,62 L-18,38 L-19,33 L-11,19 Z " fill="#FFFFFF" transform="translate(323,22)"/>
<path d="M0,0 L79,0 L85,9 L97,29 L103,40 L116,63 L118,68 L121,65 L132,46 L146,22 L159,0 L199,0 L214,26 L218,33 L217,38 L203,63 L197,73 L186,92 L178,105 L172,116 L160,137 L162,143 L170,156 L170,159 L172,159 L178,170 L193,196 L196,202 L195,207 L182,230 L171,249 L158,271 L156,272 L142,247 L137,239 L131,228 L126,220 L115,201 L115,198 L113,198 L107,187 L104,182 L104,179 L102,179 L99,173 L90,158 L84,147 L72,126 L62,109 L55,98 L50,88 L44,79 L39,69 L29,52 L22,40 L13,25 L7,14 L0,2 Z " fill="#000000" transform="translate(447,22)"/>
<path d="M0,0 L79,0 L72,14 L66,23 L60,34 L47,57 L37,74 L26,93 L18,107 L4,131 L-12,159 L-28,187 L-41,209 L-56,235 L-68,256 L-77,271 L-79,271 L-91,250 L-102,231 L-116,207 L-117,201 L-102,175 L-90,154 L-80,138 L-79,134 L-158,134 L-170,113 L-175,105 L-175,102 L-177,102 L-176,97 L-164,76 L-158,66 L-38,66 L-36,61 L-24,40 L-13,21 L-3,4 Z " fill="#000000" transform="translate(340,201)"/>
<path d="M0,0 L313,0 L311,5 L297,29 L296,29 L296,23 L298,21 L300,18 L302,18 L302,15 L304,15 L305,11 L306,7 L308,7 L308,1 L2,1 L1,5 L-1,1 Z " fill="#6A819B" transform="translate(432,407)"/>
</svg>
