<?xml version="1.0" encoding="UTF-8"?>
<!-- Generator: visioncortex VTracer 0.6.5 -->
<svg version="1.1" xmlns="http://www.w3.org/2000/svg" width="960" height="622">
<path d="M0,0 L3,1 L16,24 L22,34 L34,54 L40,65 L50,83 L57,94 L63,105 L75,126 L85,143 L101,171 L115,195 L124,211 L134,227 L140,238 L152,259 L161,275 L163,279 L83,279 L77,270 L64,247 L57,236 L53,228 L45,214 L41,208 L30,227 L16,251 L2,275 L0,279 L-41,279 L-55,255 L-60,246 L-59,241 L-51,227 L-37,203 L-28,187 L-14,163 L-2,142 L0,139 L-1,135 L-10,119 L-22,98 L-36,74 L-39,68 L-27,48 L-21,37 L-13,24 L-7,13 Z " fill="#FFFFFF" transform="translate(360,308)"/>
<path d="M0,0 L41,0 L49,14 L61,35 L70,50 L78,64 L83,73 L92,88 L102,106 L182,107 L190,119 L196,130 L209,153 L222,175 L222,176 L-101,176 L-99,171 L-84,145 L-75,130 L-69,119 L-62,107 L21,106 L7,81 L-4,62 L-16,41 L-20,33 L-14,24 L-2,3 Z " fill="#FFFFFF" transform="translate(319,15)"/>
<path d="M0,0 L80,0 L90,18 L102,38 L111,54 L120,69 L120,72 L123,69 L137,44 L151,20 L156,11 L163,0 L203,0 L213,17 L222,32 L223,34 L217,45 L209,59 L201,73 L188,95 L182,106 L174,120 L168,129 L164,137 L162,142 L172,160 L182,177 L194,198 L201,209 L199,215 L190,230 L183,242 L171,263 L162,279 L160,279 L154,268 L147,256 L138,240 L130,227 L125,218 L119,208 L114,199 L105,184 L99,173 L91,160 L85,148 L80,141 L74,129 L69,121 L58,102 L52,91 L44,78 L31,55 L27,48 L19,35 L19,32 L17,32 L12,22 L7,13 L0,2 Z " fill="#000000" transform="translate(447,15)"/>
<path d="M0,0 L3,3 L16,26 L30,50 L40,68 L39,73 L25,97 L14,116 L3,135 L-1,142 L83,142 L93,159 L102,175 L100,181 L83,210 L-41,211 L-53,232 L-61,246 L-75,270 L-81,279 L-161,279 L-155,268 L-143,247 L-131,226 L-118,204 L-110,190 L-99,171 L-84,145 L-70,121 L-64,110 L-55,95 L-42,72 L-32,55 L-16,27 L-2,3 Z " fill="#FFFFFF" transform="translate(713,125)"/>
<path d="M0,0 L322,0 L316,12 L302,36 L290,57 L283,69 L200,70 L209,86 L218,102 L224,112 L230,122 L236,133 L241,142 L230,161 L224,171 L221,176 L182,176 L179,173 L167,152 L165,146 L163,146 L154,130 L149,121 L135,97 L128,85 L120,71 L120,69 L39,69 L25,44 L19,34 L4,8 Z " fill="#000000" transform="translate(429,411)"/>
<path d="M0,0 L79,0 L71,16 L56,41 L43,64 L29,88 L14,114 L6,128 L-8,152 L-20,173 L-34,197 L-50,225 L-58,239 L-72,263 L-80,277 L-81,279 L-83,279 L-95,258 L-107,238 L-113,227 L-122,211 L-114,196 L-104,179 L-93,160 L-87,150 L-86,147 L-84,147 L-81,138 L-164,138 L-171,127 L-177,116 L-183,107 L-182,100 L-175,89 L-170,80 L-164,70 L-40,70 L-38,65 L-30,51 L-18,30 L-3,4 Z " fill="#000000" transform="translate(338,197)"/>
<path d="M0,0 L3,3 L6,9 L-317,9 L-316,6 L-315,8 L-1,8 L-1,1 Z " fill="#FFFFFF" transform="translate(535,182)"/>
<path d="M0,0 L322,0 L320,4 L319,1 L5,1 L5,8 L1,3 Z " fill="#000000" transform="translate(429,411)"/>
</svg>
