<?xml version="1.0" encoding="UTF-8"?>
<!-- Generator: visioncortex VTracer 0.6.5 -->
<svg version="1.1" xmlns="http://www.w3.org/2000/svg" width="960" height="622">
<path d="M0,0 L4,4 L18,29 L25,40 L31,51 L43,72 L57,96 L69,117 L84,143 L86,149 L88,149 L94,160 L100,171 L110,188 L122,209 L133,228 L133,230 L135,230 L141,242 L144,247 L153,262 L158,272 L78,272 L72,263 L59,240 L47,219 L39,205 L37,204 L35,209 L29,220 L17,241 L2,267 L-1,272 L-42,272 L-49,260 L-54,251 L-60,241 L-61,236 L-51,218 L-36,192 L-26,175 L-11,149 L-3,135 L-5,129 L-15,112 L-27,91 L-40,69 L-32,55 L-23,39 L-15,25 L-7,11 L-1,1 Z " fill="#FFFFFF" transform="translate(365,308)"/>
<path d="M0,0 L313,0 L306,14 L292,38 L280,59 L274,69 L195,69 L203,85 L210,96 L216,107 L227,126 L233,137 L232,142 L220,163 L214,173 L174,173 L168,163 L162,152 L162,150 L160,150 L151,134 L146,125 L132,101 L125,89 L115,71 L114,70 L38,69 L25,46 L12,24 L2,6 L0,3 Z " fill="#000000" transform="translate(432,407)"/>
<path d="M0,0 L3,1 L9,12 L21,32 L27,43 L41,67 L40,72 L26,96 L11,122 L2,138 L82,138 L91,154 L99,168 L101,173 L91,190 L82,206 L-38,207 L-49,226 L-64,252 L-69,260 L-75,271 L-76,272 L-156,272 L-150,260 L-140,243 L-134,233 L-128,222 L-121,210 L-107,186 L-92,160 L-83,144 L-69,120 L-54,94 L-39,68 L-25,44 L-13,23 Z " fill="#FFFFFF" transform="translate(706,129)"/>
<path d="M0,0 L80,0 L86,11 L95,26 L95,29 L97,29 L103,40 L113,58 L118,66 L118,69 L120,69 L122,64 L134,42 L144,25 L154,8 L159,0 L199,0 L212,23 L218,33 L215,42 L207,55 L201,66 L188,88 L182,99 L174,113 L166,126 L160,137 L162,142 L168,153 L176,167 L176,169 L178,169 L184,181 L196,201 L197,203 L191,214 L183,228 L180,234 L178,234 L177,239 L174,243 L168,254 L160,267 L158,272 L156,272 L147,256 L135,235 L123,215 L123,212 L121,212 L112,196 L106,185 L96,169 L89,155 L84,148 L78,136 L73,129 L67,118 L57,101 L56,96 L54,96 L48,85 L39,69 L29,53 L24,43 L9,18 L5,10 L0,2 Z M108,186 Z " fill="#000000" transform="translate(447,22)"/>
<path d="M0,0 L41,0 L56,26 L66,43 L74,57 L79,66 L88,81 L100,102 L176,103 L189,125 L198,141 L208,158 L215,170 L215,172 L-98,172 L-96,166 L-85,147 L-73,126 L-63,109 L-59,103 L19,103 L14,93 L8,83 L2,73 L-4,62 L-19,36 L-18,31 L-4,7 Z " fill="#FFFFFF" transform="translate(323,22)"/>
<path d="M0,0 L80,0 L74,12 L62,32 L56,43 L46,60 L32,84 L26,95 L13,117 L4,133 L-7,152 L-22,178 L-36,202 L-48,223 L-60,244 L-71,263 L-76,271 L-78,271 L-90,250 L-104,226 L-116,205 L-116,201 L-110,191 L-94,163 L-84,146 L-79,138 L-78,134 L-157,134 L-170,112 L-173,106 L-176,101 L-174,95 L-167,84 L-161,73 L-157,66 L-37,65 L-27,47 L-17,30 L-8,15 L-4,8 Z " fill="#000000" transform="translate(339,201)"/>
<path d="M0,0 L1,4 L-2,8 L304,9 L302,3 L305,4 L308,9 L308,11 L-5,11 L-3,5 Z " fill="#FFFFFF" transform="translate(230,183)"/>
<path d="M0,0 L313,0 L311,5 L304,3 L304,1 L4,1 L4,8 L0,3 Z " fill="#000000" transform="translate(432,407)"/>
</svg>
