<?xml version="1.0" encoding="UTF-8"?>
<!-- Generator: visioncortex VTracer 0.6.5 -->
<svg version="1.1" xmlns="http://www.w3.org/2000/svg" width="960" height="622">
<path d="M0,0 L39,0 L45,9 L50,18 L60,34 L65,44 L71,54 L86,80 L91,88 L91,90 L123,89 L139,89 L150,90 L160,107 L166,117 L179,140 L187,153 L189,159 L-91,159 L-89,154 L-78,134 L-72,124 L-63,108 L-57,99 L-52,90 L-51,89 L10,89 L0,71 L-9,56 L-16,44 L-20,37 L-19,33 L-8,13 Z " fill="#FFFFFF" transform="translate(341,51)"/>
<path d="M0,0 L2,0 L11,16 L20,32 L30,49 L45,75 L50,84 L50,86 L52,86 L59,100 L67,113 L79,134 L93,158 L102,173 L108,184 L114,194 L120,205 L130,222 L140,239 L140,242 L61,242 L54,231 L44,214 L35,198 L31,191 L31,189 L28,192 L19,208 L8,227 L-1,242 L-42,242 L-54,221 L-61,209 L-60,204 L-47,182 L-35,161 L-21,137 L-15,127 L-11,119 L-21,101 L-32,82 L-39,70 L-38,65 L-24,41 L-15,25 L-2,3 Z " fill="#FFFFFF" transform="translate(382,308)"/>
<path d="M0,0 L279,0 L277,6 L274,11 L265,26 L252,49 L243,64 L240,69 L178,69 L183,79 L197,103 L208,122 L207,127 L197,144 L189,158 L149,158 L143,149 L138,140 L124,116 L117,104 L104,81 L98,71 L98,69 L39,69 L33,59 L20,37 L11,21 L0,2 Z " fill="#000000" transform="translate(440,392)"/>
<path d="M0,0 L4,4 L13,20 L25,41 L36,60 L40,67 L39,72 L27,93 L13,117 L10,123 L72,123 L77,130 L83,141 L91,155 L90,160 L79,180 L72,191 L-30,192 L-37,203 L-43,214 L-52,230 L-59,242 L-139,242 L-137,236 L-127,219 L-115,198 L-103,178 L-97,167 L-85,146 L-73,125 L-57,98 L-43,73 L-27,46 L-15,25 Z " fill="#FFFFFF" transform="translate(681,144)"/>
<path d="M0,0 L2,1 L6,8 L14,22 L23,37 L29,48 L31,54 L34,54 L35,50 L47,29 L62,3 L64,1 L103,0 L115,20 L123,34 L121,40 L110,59 L104,70 L96,84 L88,97 L82,108 L74,122 L75,127 L81,138 L90,154 L98,167 L101,173 L100,178 L89,197 L82,209 L68,233 L62,243 L59,240 L56,234 L56,232 L54,232 L49,222 L37,202 L32,193 L27,184 L17,167 L8,151 L-1,136 L-10,121 L-16,110 L-28,89 L-30,83 L-32,83 L-39,69 L-46,58 L-52,47 L-60,34 L-66,23 L-70,16 L-78,2 L-78,1 Z " fill="#000000" transform="translate(525,51)"/>
<path d="M0,0 L79,0 L77,5 L65,26 L55,44 L47,58 L40,69 L34,81 L29,89 L16,111 L7,127 L-7,151 L-21,175 L-33,196 L-40,208 L-45,217 L-53,231 L-59,241 L-61,241 L-78,212 L-94,184 L-99,175 L-98,169 L-83,143 L-73,126 L-70,120 L-131,119 L-138,108 L-143,99 L-151,85 L-138,62 L-132,51 L-29,50 L-17,29 L-10,17 Z " fill="#000000" transform="translate(348,216)"/>
<path d="M0,0 L1,0 L1,8 L275,8 L275,10 L-5,10 L-3,5 Z " fill="#FFFFFF" transform="translate(255,200)"/>
</svg>
