<?xml version="1.0" encoding="UTF-8"?>
<!-- Generator: visioncortex VTracer 0.6.5 -->
<svg version="1.1" xmlns="http://www.w3.org/2000/svg" width="960" height="622">
<path d="M0,0 L41,0 L44,5 L54,21 L59,31 L65,41 L80,67 L89,82 L139,82 L142,85 L156,110 L166,127 L179,149 L179,152 L-86,152 L-84,146 L-70,122 L-58,101 L-49,86 L-47,82 L8,82 L-1,67 L-12,48 L-19,36 L-17,30 L-4,7 Z " fill="#9B59D0" transform="translate(347,64)"/>
<path d="M0,0 L5,5 L11,16 L16,25 L30,49 L45,75 L59,99 L68,114 L74,125 L89,151 L97,165 L105,178 L111,189 L127,217 L134,229 L134,230 L54,230 L50,225 L45,215 L29,188 L26,184 L19,195 L13,206 L1,227 L-1,230 L-41,230 L-49,217 L-61,196 L-59,191 L-49,173 L-40,158 L-24,130 L-16,116 L-15,111 L-29,87 L-36,75 L-39,70 L-38,65 L-24,41 L-10,17 Z " fill="#9B59D0" transform="translate(389,308)"/>
<path d="M0,0 L2,0 L17,27 L32,52 L40,66 L41,70 L31,86 L25,97 L16,113 L14,117 L69,117 L75,127 L84,143 L88,149 L87,154 L78,170 L69,185 L-27,185 L-29,190 L-39,208 L-50,227 L-52,230 L-132,230 L-125,216 L-111,192 L-99,171 L-86,149 L-77,133 L-63,109 L-50,86 L-40,69 L-25,43 L-11,19 Z " fill="#9B59D0" transform="translate(670,150)"/>
<path d="M0,0 L266,0 L258,15 L250,28 L237,51 L227,68 L226,69 L172,70 L177,80 L187,97 L198,116 L196,122 L188,136 L179,151 L174,152 L138,152 L132,141 L119,118 L113,109 L108,99 L95,77 L91,70 L39,69 L27,48 L14,25 L4,8 Z " fill="#57148D" transform="translate(443,386)"/>
<path d="M0,0 L80,0 L86,11 L100,35 L106,46 L106,48 L108,48 L110,42 L124,18 L134,0 L175,0 L183,15 L193,32 L194,36 L188,46 L182,57 L174,71 L166,84 L160,95 L153,107 L148,115 L149,120 L155,130 L161,141 L170,156 L172,160 L171,165 L157,189 L145,209 L140,218 L133,230 L130,227 L130,224 L128,224 L118,206 L110,192 L100,175 L94,165 L94,162 L92,162 L87,152 L83,146 L77,135 L69,122 L63,110 L58,102 L50,89 L44,78 L36,65 L30,54 L21,38 L11,21 L5,10 L0,2 Z " fill="#57148D" transform="translate(447,64)"/>
<path d="M0,0 L79,0 L77,5 L71,15 L66,24 L56,41 L50,52 L40,68 L36,76 L25,95 L11,119 L-3,144 L-13,161 L-24,179 L-30,190 L-37,202 L-43,213 L-52,228 L-55,228 L-69,204 L-82,181 L-91,166 L-93,160 L-79,136 L-66,113 L-121,113 L-127,103 L-134,92 L-138,84 L-140,81 L-139,75 L-130,60 L-122,45 L-26,44 L-14,23 L-1,1 Z " fill="#57148D" transform="translate(352,222)"/>
</svg>
