<?xml version="1.0" encoding="UTF-8"?>
<!-- Generator: visioncortex VTracer 0.6.5 -->
<svg version="1.1" xmlns="http://www.w3.org/2000/svg" width="960" height="622">
<path d="M0,0 L3,3 L14,22 L25,41 L35,58 L47,79 L62,105 L67,114 L76,129 L88,150 L100,170 L106,181 L120,205 L126,216 L125,217 L46,217 L34,197 L23,178 L23,176 L21,176 L19,183 L15,188 L9,199 L3,209 L-1,217 L-41,217 L-47,208 L-60,185 L-61,180 L-48,158 L-32,130 L-24,116 L-18,107 L-34,79 L-40,68 L-26,44 L-11,18 L-6,10 L-1,1 Z " fill="#9B59D0" transform="translate(397,308)"/>
<path d="M0,0 L41,0 L47,11 L56,26 L72,54 L84,75 L128,76 L140,96 L156,124 L168,144 L167,146 L-82,146 L-82,143 L-70,121 L-65,113 L-50,87 L-44,76 L3,75 L-11,50 L-19,36 L-18,32 L-4,7 Z " fill="#9B59D0" transform="translate(355,77)"/>
<path d="M0,0 L79,0 L87,13 L94,25 L100,35 L102,41 L105,38 L114,22 L125,3 L128,0 L162,0 L168,1 L173,11 L183,28 L186,33 L185,39 L175,56 L166,71 L160,82 L153,94 L144,109 L145,113 L158,136 L164,147 L163,152 L155,166 L147,179 L144,185 L135,201 L128,213 L124,217 L114,200 L108,189 L101,177 L93,163 L91,160 L91,157 L89,157 L83,146 L74,130 L72,127 L72,124 L70,124 L59,104 L45,80 L33,59 L27,48 L19,35 L19,32 L17,32 L11,21 L5,11 L1,4 Z " fill="#57148D" transform="translate(447,77)"/>
<path d="M0,0 L3,1 L18,27 L33,53 L41,67 L40,71 L29,91 L20,106 L18,110 L66,110 L78,131 L85,143 L83,149 L77,159 L66,178 L-22,179 L-37,205 L-43,216 L-124,216 L-118,205 L-108,187 L-99,172 L-84,146 L-71,124 L-65,113 L-55,95 L-46,80 L-35,61 L-25,44 L-19,33 L-5,9 Z " fill="#9B59D0" transform="translate(658,157)"/>
<path d="M0,0 L250,0 L245,10 L229,37 L223,47 L217,58 L211,68 L210,69 L163,69 L163,71 L165,71 L169,79 L180,98 L186,109 L184,115 L178,126 L167,144 L127,144 L117,128 L108,112 L105,107 L92,84 L84,71 L84,69 L40,69 L34,60 L26,46 L13,23 L3,6 Z " fill="#57148D" transform="translate(447,380)"/>
<path d="M0,0 L80,0 L72,15 L58,39 L50,52 L44,63 L30,87 L17,110 L11,121 L-2,143 L-8,153 L-15,165 L-25,183 L-39,207 L-45,216 L-48,212 L-62,187 L-70,174 L-84,150 L-83,144 L-75,130 L-66,114 L-63,110 L-62,106 L-109,106 L-122,84 L-127,75 L-128,71 L-121,59 L-109,38 L-21,37 L-15,27 L-8,13 L-4,8 Z " fill="#57148D" transform="translate(355,229)"/>
</svg>
