<?xml version="1.0" encoding="UTF-8"?>
<!-- Generator: visioncortex VTracer 0.6.5 -->
<svg version="1.1" xmlns="http://www.w3.org/2000/svg" width="960" height="622">
<path d="M0,0 L40,0 L46,9 L59,32 L73,56 L75,60 L103,61 L116,84 L130,108 L141,127 L141,131 L-74,131 L-74,128 L-60,103 L-53,92 L-47,81 L-38,66 L-35,61 L-5,61 L-13,48 L-19,37 L-20,34 L-10,17 L-3,5 Z " fill="#9B59D0" transform="translate(372,106)"/>
<path d="M0,0 L3,3 L12,19 L14,22 L14,25 L16,25 L21,35 L30,50 L45,76 L60,102 L72,122 L78,133 L87,149 L92,157 L98,168 L108,185 L108,188 L29,188 L17,168 L14,163 L10,168 L5,177 L-2,188 L-42,188 L-57,162 L-62,153 L-48,128 L-38,111 L-28,94 L-29,89 L-40,69 L-36,61 L-27,45 L-13,21 L-1,1 Z " fill="#9B59D0" transform="translate(414,308)"/>
<path d="M0,0 L4,5 L17,27 L23,38 L37,62 L40,67 L39,72 L25,96 L56,96 L63,107 L76,129 L70,140 L64,151 L56,164 L-15,164 L-17,169 L-25,183 L-28,188 L-108,188 L-106,182 L-98,169 L-89,153 L-79,136 L-71,122 L-62,106 L-52,89 L-44,76 L-38,65 L-25,42 L-11,18 L-1,1 Z " fill="#9B59D0" transform="translate(634,171)"/>
<path d="M0,0 L65,0 L80,1 L90,18 L94,25 L96,26 L98,21 L104,11 L110,1 L122,0 L145,0 L151,1 L160,17 L169,33 L168,39 L158,56 L150,70 L141,85 L136,94 L137,100 L145,113 L148,118 L146,124 L136,141 L129,153 L120,169 L114,179 L110,186 L107,187 L95,166 L89,156 L82,144 L76,133 L68,119 L63,111 L51,90 L46,82 L40,71 L28,50 L24,43 L18,33 L18,30 L16,30 L4,8 L0,2 Z " fill="#57148D" transform="translate(447,106)"/>
<path d="M0,0 L216,0 L214,4 L207,18 L199,31 L185,55 L176,70 L152,70 L146,69 L152,80 L160,94 L159,101 L152,112 L143,128 L141,131 L101,131 L96,122 L83,99 L75,86 L69,75 L67,70 L40,70 L33,60 L18,33 L10,20 L0,3 Z " fill="#57148D" transform="translate(456,365)"/>
<path d="M0,0 L79,0 L77,5 L68,21 L59,36 L53,47 L43,64 L37,74 L31,85 L19,106 L7,127 L1,137 L-13,161 L-26,184 L-29,188 L-35,178 L-47,157 L-54,146 L-60,135 L-68,121 L-67,116 L-54,92 L-84,92 L-90,83 L-97,71 L-103,60 L-104,58 L-91,35 L-85,24 L-13,24 L-11,18 L-2,3 Z " fill="#57148D" transform="translate(364,243)"/>
</svg>
