<?xml version="1.0" encoding="UTF-8"?>
<!-- Generator: visioncortex VTracer 0.6.5 -->
<svg version="1.1" xmlns="http://www.w3.org/2000/svg" width="960" height="622">
<path d="M0,0 L2,0 L11,16 L16,24 L22,35 L33,54 L44,73 L54,90 L63,106 L71,119 L77,130 L92,156 L101,171 L101,172 L20,172 L11,156 L9,156 L3,166 L0,172 L-41,172 L-47,163 L-61,138 L-54,124 L-48,115 L-37,95 L-31,85 L-33,80 L-39,69 L-37,64 L-28,48 L-18,31 L-3,5 Z " fill="#9B59D0" transform="translate(422,308)"/>
<path d="M0,0 L40,0 L53,22 L69,50 L70,54 L89,54 L95,63 L105,80 L111,91 L123,112 L129,123 L-70,123 L-68,117 L-54,93 L-40,69 L-31,54 L-10,53 L-20,36 L-18,31 L-2,3 Z " fill="#9B59D0" transform="translate(381,121)"/>
<path d="M0,0 L79,0 L84,8 L90,18 L94,13 L101,0 L141,0 L155,24 L161,34 L159,39 L152,52 L140,72 L131,87 L132,91 L139,103 L137,109 L132,118 L122,135 L112,152 L105,164 L100,173 L96,169 L91,159 L82,144 L70,123 L62,110 L62,107 L60,107 L54,96 L44,78 L34,61 L22,40 L16,30 L12,23 L0,2 Z " fill="#57148D" transform="translate(447,121)"/>
<path d="M0,0 L2,0 L17,26 L23,36 L33,54 L41,67 L40,71 L31,87 L53,88 L68,114 L72,121 L70,126 L60,144 L53,155 L52,156 L-10,156 L-12,161 L-18,171 L-19,172 L-99,172 L-91,157 L-81,141 L-75,130 L-63,109 L-55,95 L-41,71 L-26,45 L-12,21 Z " fill="#9B59D0" transform="translate(620,179)"/>
<path d="M0,0 L199,0 L197,5 L188,21 L178,38 L172,48 L160,69 L138,69 L146,85 L148,88 L148,91 L146,91 L145,95 L135,112 L129,123 L88,123 L72,95 L62,78 L57,70 L39,69 L27,49 L18,33 L8,16 L0,2 Z " fill="#57148D" transform="translate(460,357)"/>
<path d="M0,0 L80,0 L72,14 L66,25 L60,34 L55,44 L46,59 L33,82 L19,106 L10,122 L-3,144 L-13,161 L-19,172 L-22,169 L-37,143 L-45,129 L-59,105 L-58,100 L-49,84 L-71,84 L-83,63 L-90,51 L-88,45 L-81,33 L-71,16 L-8,16 L-6,10 Z " fill="#57148D" transform="translate(368,251)"/>
<path d="M0,0 L2,2 L0,8 L-3,9 L-4,12 L188,12 L190,10 L192,14 L-7,14 L-5,8 Z " fill="#9B59D0" transform="translate(318,230)"/>
</svg>
