<?xml version="1.0" encoding="UTF-8"?>
<!-- Generator: visioncortex VTracer 0.6.5 -->
<svg version="1.1" xmlns="http://www.w3.org/2000/svg" width="960" height="622">
<path d="M0,0 L2,0 L11,16 L15,22 L21,33 L36,59 L45,74 L51,85 L64,108 L72,121 L78,131 L84,142 L92,156 L89,157 L12,157 L7,149 L7,147 L4,147 L2,152 L-1,157 L-41,157 L-50,142 L-61,123 L-54,109 L-44,92 L-36,78 L-37,73 L-39,67 L-35,61 L-29,50 L-15,26 L-6,10 Z " fill="#9B59D0" transform="translate(431,308)"/>
<path d="M0,0 L4,5 L20,33 L34,57 L40,68 L39,73 L35,80 L48,81 L58,99 L65,110 L67,116 L59,130 L50,145 L47,149 L-7,150 L-9,156 L-11,158 L-90,158 L-88,152 L-78,135 L-66,114 L-53,92 L-40,69 L-25,43 L-15,26 L-2,3 Z " fill="#9B59D0" transform="translate(607,186)"/>
<path d="M0,0 L40,0 L46,9 L60,34 L67,45 L76,46 L86,63 L97,82 L112,108 L115,113 L115,115 L-66,115 L-64,110 L-53,91 L-38,65 L-27,46 L-15,45 L-20,34 L-5,8 Z " fill="#9B59D0" transform="translate(390,137)"/>
<path d="M0,0 L80,0 L85,9 L87,9 L92,0 L132,0 L141,15 L152,34 L150,39 L136,63 L129,75 L127,79 L128,83 L130,89 L125,98 L116,114 L106,131 L97,147 L91,157 L89,156 L84,147 L75,132 L69,121 L60,106 L54,95 L46,82 L40,71 L25,45 L12,22 L0,2 Z " fill="#57148D" transform="translate(447,137)"/>
<path d="M0,0 L181,0 L175,12 L165,29 L158,42 L156,42 L155,46 L143,67 L141,69 L129,69 L135,79 L133,84 L124,100 L116,114 L75,114 L67,101 L61,90 L54,79 L49,69 L40,69 L32,56 L17,30 L8,14 Z " fill="#57148D" transform="translate(464,350)"/>
<path d="M0,0 L80,0 L79,4 L77,4 L76,8 L70,19 L61,33 L56,43 L52,50 L38,74 L26,95 L15,114 L3,134 L-8,153 L-9,156 L-11,156 L-19,142 L-31,121 L-43,100 L-49,90 L-50,88 L-44,76 L-57,76 L-69,55 L-76,43 L-74,37 L-67,25 L-57,8 L-3,8 L-2,4 Z " fill="#57148D" transform="translate(372,259)"/>
<path d="M0,0 L2,1 L2,3 L0,3 L0,9 L-3,10 L-4,13 L170,13 L170,11 L168,11 L168,7 L166,7 L167,3 L173,13 L173,15 L-8,15 L-6,10 Z " fill="#9B59D0" transform="translate(332,237)"/>
<path d="M0,0 L176,0 L176,2 L5,2 L5,5 L2,4 Z " fill="#57148D" transform="translate(464,350)"/>
</svg>
