<?xml version="1.0" encoding="UTF-8"?>
<!-- Generator: visioncortex VTracer 0.6.5 -->
<svg version="1.1" xmlns="http://www.w3.org/2000/svg" width="960" height="622">
<path d="M0,0 L4,5 L17,28 L27,45 L38,64 L36,66 L-37,66 L-35,60 L-19,32 L-9,15 Z " fill="#9B59D0" transform="translate(528,232)"/>
<path d="M0,0 L2,0 L13,20 L25,40 L31,51 L38,63 L38,65 L-37,65 L-31,53 L-21,36 L-6,10 Z " fill="#9B59D0" transform="translate(484,308)"/>
<path d="M0,0 L3,1 L11,15 L17,25 L23,36 L31,50 L38,62 L38,65 L-37,65 L-35,60 L-20,34 L-8,14 L-2,3 Z " fill="#9B59D0" transform="translate(440,233)"/>
<path d="M0,0 L74,0 L68,12 L62,22 L53,38 L38,64 L36,65 L30,54 L20,37 L8,17 L2,6 L0,3 Z " fill="#57148D" transform="translate(448,229)"/>
<path d="M0,0 L74,1 L72,6 L61,26 L51,43 L41,60 L38,66 L34,61 L24,43 L11,21 L0,2 Z " fill="#57148D" transform="translate(491,304)"/>
<path d="M0,0 L74,0 L67,14 L53,38 L43,55 L38,64 L36,64 L23,41 L15,27 L6,12 L0,2 Z " fill="#57148D" transform="translate(404,305)"/>
</svg>
