<?xml version="1.0" encoding="UTF-8"?>
<!-- Generator: visioncortex VTracer 0.6.5 -->
<svg version="1.1" xmlns="http://www.w3.org/2000/svg" width="960" height="622">
<path d="M0,0 L19,0 L20,4 L11,19 L7,15 L0,2 Z " fill="#9B59D0" transform="translate(491,304)"/>
<path d="M0,0 L20,0 L19,4 L13,15 L12,17 L8,17 L0,3 Z " fill="#9B59D0" transform="translate(458,304)"/>
<path d="M0,0 L17,0 L17,4 L11,15 L7,19 L-1,5 L-1,1 Z " fill="#9B59D0" transform="translate(477,275)"/>
<path d="M0,0 L5,1 L11,12 L13,16 L-8,16 L-3,6 Z " fill="#57148D" transform="translate(499,281)"/>
<path d="M0,0 L4,4 L10,15 L9,18 L-10,18 L-8,17 L-7,12 L-3,6 Z " fill="#57148D" transform="translate(484,308)"/>
<path d="M0,0 L3,1 L11,15 L11,17 L-8,17 L-7,12 Z " fill="#57148D" transform="translate(467,280)"/>
</svg>
