<?xml version="1.0" encoding="UTF-8"?>
<!-- Generator: visioncortex VTracer 0.6.5 -->
<svg version="1.1" xmlns="http://www.w3.org/2000/svg" width="960" height="622">
<path d="M0,0 L11,0 L9,6 L5,10 L0,2 Z " fill="#9B59D0" transform="translate(491,304)"/>
<path d="M0,0 L11,0 L9,6 L5,10 L0,2 Z " fill="#9B59D0" transform="translate(479,284)"/>
<path d="M0,0 L10,0 L9,4 L6,10 L4,10 L0,3 Z " fill="#9B59D0" transform="translate(468,304)"/>
<path d="M0,0 L4,4 L6,10 L-5,10 L-3,6 Z " fill="#57148D" transform="translate(484,308)"/>
<path d="M0,0 L4,5 L6,9 L-5,9 L-1,1 Z " fill="#57148D" transform="translate(496,288)"/>
<path d="M0,0 L2,0 L6,7 L6,9 L-4,9 Z " fill="#57148D" transform="translate(472,288)"/>
</svg>
