<?xml version="1.0" encoding="UTF-8"?>
<!-- Generator: visioncortex VTracer 0.6.5 -->
<svg version="1.1" xmlns="http://www.w3.org/2000/svg" width="960" height="622">
<path d="M0,0 L17,0 L23,9 L25,15 L5,16 L-2,28 L-4,29 L-10,19 L-9,15 L-1,1 Z " fill="#9B59D0" transform="translate(488,265)"/>
<path d="M0,0 L13,0 L21,13 L23,16 L22,20 L15,32 L14,33 L-2,33 L0,28 L7,16 L4,9 L0,2 Z " fill="#9B59D0" transform="translate(491,304)"/>
<path d="M0,0 L3,3 L10,15 L10,17 L27,17 L26,21 L22,29 L1,29 L-7,16 L-6,10 Z " fill="#9B59D0" transform="translate(451,287)"/>
<path d="M0,0 L2,0 L7,10 L5,15 L-2,27 L-4,28 L-18,28 L-22,24 L-27,15 L-26,13 L-8,14 L-6,10 L-5,7 L-3,7 L-1,1 Z " fill="#57148D" transform="translate(484,309)"/>
<path d="M0,0 L16,0 L9,14 L7,19 L10,24 L10,26 L12,26 L14,32 L1,32 L-8,17 L-7,12 Z " fill="#57148D" transform="translate(464,265)"/>
<path d="M0,0 L21,0 L24,5 L28,11 L28,14 L30,14 L30,16 L28,16 L27,20 L22,29 L20,27 L14,16 L12,11 L-4,11 L-2,5 Z " fill="#57148D" transform="translate(496,286)"/>
</svg>
