<?xml version="1.0" encoding="UTF-8"?>
<!-- Generator: visioncortex VTracer 0.6.5 -->
<svg version="1.1" xmlns="http://www.w3.org/2000/svg" width="960" height="622">
<path d="M0,0 L4,4 L10,15 L16,25 L22,36 L29,49 L27,52 L-29,52 L-28,47 L-15,25 L-3,4 Z " fill="#9B59D0" transform="translate(492,308)"/>
<path d="M0,0 L5,0 L11,11 L21,29 L32,48 L32,49 L-28,49 L-26,44 L-12,19 L-1,1 Z " fill="#9B59D0" transform="translate(515,242)"/>
<path d="M0,0 L4,4 L17,27 L23,37 L31,51 L31,52 L-26,52 L-27,47 L-15,26 L-7,12 Z " fill="#9B59D0" transform="translate(444,252)"/>
<path d="M0,0 L56,0 L52,8 L41,27 L28,49 L27,52 L25,52 L19,41 L13,30 L-1,6 L-2,2 Z " fill="#57148D" transform="translate(451,242)"/>
<path d="M0,0 L59,0 L57,5 L43,30 L33,47 L32,49 L26,47 L22,40 L22,37 L20,37 L9,17 L3,7 L0,2 Z " fill="#57148D" transform="translate(423,311)"/>
<path d="M0,0 L55,0 L56,1 L56,6 L51,14 L45,23 L39,34 L29,52 L25,47 L16,31 L4,10 L2,7 L2,4 L0,4 Z " fill="#57148D" transform="translate(496,298)"/>
</svg>
