<?xml version="1.0" encoding="UTF-8"?>
<!-- Generator: visioncortex VTracer 0.6.5 -->
<svg version="1.1" xmlns="http://www.w3.org/2000/svg" width="960" height="622">
<path d="M0,0 L40,0 L46,9 L56,27 L66,44 L76,61 L102,61 L108,70 L119,89 L131,110 L142,129 L142,131 L-68,131 L-75,130 L-67,116 L-61,105 L-51,88 L-36,62 L-35,61 L-6,60 L-20,35 L-14,24 L-2,3 Z " fill="#9B59D0" transform="translate(372,106)"/>
<path d="M0,0 L3,1 L13,19 L18,28 L28,45 L37,60 L43,71 L57,95 L72,121 L85,144 L92,155 L98,166 L106,180 L109,185 L109,188 L30,188 L24,178 L15,163 L11,168 L0,187 L-1,188 L-41,188 L-58,159 L-61,153 L-51,135 L-41,118 L-27,94 L-28,88 L-38,71 L-39,68 L-26,45 L-16,28 L-3,5 Z " fill="#9B59D0" transform="translate(413,308)"/>
<path d="M0,0 L4,5 L17,28 L23,38 L38,63 L40,67 L39,72 L27,92 L26,96 L56,96 L62,105 L72,123 L75,128 L74,134 L60,158 L56,164 L-14,165 L-20,174 L-28,188 L-108,188 L-106,183 L-100,172 L-89,153 L-78,134 L-63,108 L-48,82 L-34,58 L-22,37 L-11,18 L-1,1 Z " fill="#9B59D0" transform="translate(634,171)"/>
<path d="M0,0 L36,0 L39,3 L44,12 L52,25 L56,32 L55,39 L39,67 L25,91 L23,95 L24,99 L31,111 L35,118 L33,124 L20,146 L14,157 L1,179 L-4,188 L-7,185 L-22,159 L-30,146 L-35,137 L-43,123 L-51,109 L-68,80 L-77,65 L-83,53 L-88,46 L-93,36 L-105,16 L-111,5 L-113,1 L-33,1 L-23,18 L-19,25 L-17,26 L-15,21 L-4,2 Z " fill="#57148D" transform="translate(560,106)"/>
<path d="M0,0 L161,0 L159,5 L144,31 L129,57 L122,69 L112,70 L92,70 L98,82 L106,95 L104,100 L91,123 L86,131 L47,131 L41,122 L36,114 L30,103 L19,84 L11,70 L-16,70 L-30,46 L-42,25 L-50,12 L-55,3 L-55,1 Z " fill="#57148D" transform="translate(511,365)"/>
<path d="M0,0 L79,0 L77,5 L64,28 L50,52 L37,75 L26,94 L11,120 L-3,144 L-11,158 L-21,175 L-28,187 L-30,187 L-39,171 L-53,147 L-65,126 L-68,121 L-67,115 L-54,93 L-84,92 L-90,83 L-99,67 L-104,59 L-102,54 L-92,36 L-85,24 L-13,24 L-11,19 L-1,1 Z " fill="#57148D" transform="translate(364,243)"/>
</svg>
