<?xml version="1.0" encoding="UTF-8"?>
<!-- Generator: visioncortex VTracer 0.6.5 -->
<svg version="1.1" xmlns="http://www.w3.org/2000/svg" width="960" height="622">
<path d="M0,0 L39,0 L43,5 L52,21 L61,37 L71,54 L83,75 L127,76 L139,96 L152,119 L162,136 L166,143 L166,146 L-84,146 L-82,141 L-73,125 L-65,111 L-51,87 L-45,76 L2,75 L-11,52 L-20,37 L-19,32 L-4,5 Z " fill="#9B59D0" transform="translate(356,77)"/>
<path d="M0,0 L2,0 L7,10 L21,34 L30,49 L36,60 L51,86 L65,110 L79,134 L88,150 L100,170 L106,181 L118,202 L125,214 L125,216 L115,217 L46,217 L34,197 L28,186 L23,178 L23,176 L21,176 L19,182 L7,203 L-1,216 L-5,217 L-41,217 L-47,208 L-54,196 L-60,185 L-61,181 L-46,154 L-36,137 L-24,116 L-19,108 L-20,103 L-30,86 L-39,71 L-38,65 L-25,42 L-14,24 L-8,13 L-1,1 Z " fill="#9B59D0" transform="translate(397,308)"/>
<path d="M0,0 L4,5 L19,32 L28,47 L40,68 L39,72 L25,97 L18,109 L18,110 L65,111 L77,132 L84,144 L82,149 L69,172 L65,179 L-23,180 L-37,204 L-44,216 L-45,217 L-125,217 L-119,206 L-105,181 L-94,162 L-84,145 L-70,121 L-62,107 L-48,83 L-38,65 L-24,41 L-10,17 Z " fill="#9B59D0" transform="translate(659,156)"/>
<path d="M0,0 L37,0 L43,8 L48,18 L57,33 L56,38 L45,58 L35,75 L21,99 L15,109 L17,115 L26,131 L35,146 L35,150 L20,177 L10,194 L-3,216 L-6,215 L-15,199 L-23,185 L-37,161 L-38,157 L-40,157 L-44,149 L-51,137 L-63,116 L-74,97 L-89,71 L-97,57 L-108,38 L-118,21 L-121,16 L-121,13 L-123,13 L-124,8 L-126,8 L-129,1 L-49,1 L-35,25 L-27,39 L-27,41 L-25,41 L-23,36 L-11,15 L-2,1 Z " fill="#57148D" transform="translate(576,77)"/>
<path d="M0,0 L89,0 L87,5 L77,23 L67,40 L55,61 L50,69 L48,70 L2,70 L9,81 L14,90 L25,109 L24,115 L14,132 L6,145 L5,146 L-35,145 L-40,136 L-48,122 L-57,106 L-61,100 L-67,89 L-78,70 L-121,70 L-126,62 L-135,47 L-148,24 L-155,13 L-161,1 Z " fill="#57148D" transform="translate(608,379)"/>
<path d="M0,0 L80,0 L72,15 L58,39 L44,63 L32,84 L19,107 L3,134 L-10,157 L-24,181 L-39,207 L-44,216 L-48,212 L-58,194 L-67,179 L-80,156 L-85,147 L-70,121 L-62,107 L-109,106 L-118,90 L-126,77 L-126,74 L-128,74 L-127,69 L-112,43 L-109,38 L-21,38 L-19,33 L-4,7 Z " fill="#57148D" transform="translate(355,229)"/>
</svg>
