<?xml version="1.0" encoding="UTF-8"?>
<!-- Generator: visioncortex VTracer 0.6.5 -->
<svg version="1.1" xmlns="http://www.w3.org/2000/svg" width="960" height="622">
<path d="M0,0 L39,0 L43,5 L54,25 L61,36 L67,47 L76,63 L86,80 L91,88 L149,89 L155,98 L168,121 L179,140 L189,157 L189,159 L-91,159 L-89,154 L-80,138 L-72,124 L-58,100 L-52,90 L-51,89 L10,88 L4,78 L-7,59 L-15,46 L-19,38 L-20,34 L-5,8 Z " fill="#9B59D0" transform="translate(341,51)"/>
<path d="M0,0 L2,0 L12,18 L21,33 L27,44 L34,56 L48,80 L56,94 L64,108 L74,125 L84,143 L90,153 L105,179 L113,192 L119,203 L131,224 L140,240 L140,242 L60,242 L50,224 L35,199 L30,190 L24,199 L18,209 L12,220 L4,234 L-1,242 L-41,242 L-47,233 L-61,209 L-60,204 L-47,182 L-32,156 L-17,130 L-11,120 L-16,110 L-29,87 L-38,72 L-39,67 L-24,41 L-9,15 Z " fill="#9B59D0" transform="translate(382,308)"/>
<path d="M0,0 L280,0 L278,5 L264,30 L252,50 L246,61 L241,69 L179,70 L185,81 L194,96 L203,111 L209,122 L208,127 L198,144 L190,157 L189,158 L150,158 L144,149 L134,131 L128,122 L122,111 L112,93 L108,87 L102,76 L98,70 L40,69 L32,56 L17,30 L4,8 Z " fill="#57148D" transform="translate(439,392)"/>
<path d="M0,0 L4,4 L19,31 L35,58 L40,67 L39,72 L31,86 L22,102 L13,117 L10,123 L72,123 L80,136 L91,155 L90,160 L79,180 L72,192 L-30,192 L-37,203 L-43,214 L-55,235 L-60,242 L-139,242 L-137,236 L-123,212 L-111,191 L-100,172 L-85,146 L-74,127 L-64,110 L-50,86 L-39,66 L-26,44 L-11,18 L-1,1 Z " fill="#9B59D0" transform="translate(681,144)"/>
<path d="M0,0 L47,0 L80,1 L89,17 L103,41 L110,53 L112,54 L114,48 L129,22 L139,5 L142,1 L182,1 L191,17 L201,34 L200,38 L193,51 L186,62 L180,73 L167,96 L152,122 L151,125 L159,138 L167,152 L179,173 L178,178 L170,192 L156,216 L140,243 L137,240 L131,229 L125,219 L116,203 L102,179 L101,175 L99,175 L96,169 L96,166 L94,166 L89,156 L80,141 L64,113 L62,110 L62,107 L60,107 L54,96 L42,75 L34,61 L20,37 L8,16 L0,2 Z " fill="#57148D" transform="translate(447,51)"/>
<path d="M0,0 L80,0 L74,11 L62,31 L56,42 L43,65 L33,82 L25,96 L11,120 L-1,141 L-12,160 L-24,181 L-35,200 L-46,219 L-59,241 L-61,241 L-72,222 L-82,205 L-97,179 L-100,172 L-88,152 L-76,131 L-69,119 L-132,119 L-143,99 L-151,86 L-149,81 L-140,65 L-132,51 L-29,50 L-14,24 Z " fill="#57148D" transform="translate(348,216)"/>
<path d="M0,0 L2,4 L278,3 L278,5 L-2,5 Z " fill="#9B59D0" transform="translate(252,205)"/>
</svg>
