<?xml version="1.0" encoding="UTF-8"?>
<!-- Generator: visioncortex VTracer 0.6.5 -->
<svg version="1.1" xmlns="http://www.w3.org/2000/svg" width="960" height="622">
<path d="M0,0 L3,1 L13,19 L23,36 L38,62 L53,88 L62,103 L68,114 L75,126 L89,150 L102,173 L112,190 L127,216 L139,236 L145,247 L148,252 L148,254 L68,254 L57,236 L51,225 L36,199 L33,196 L25,209 L19,220 L11,234 L3,248 L-1,254 L-40,254 L-46,245 L-60,221 L-60,216 L-51,201 L-36,175 L-21,149 L-8,127 L-9,121 L-23,97 L-31,83 L-38,71 L-38,66 L-24,42 L-16,28 L-4,7 Z " fill="#9B59D0" transform="translate(375,308)"/>
<path d="M0,0 L40,0 L48,13 L63,39 L68,47 L74,58 L83,74 L91,88 L94,93 L98,94 L146,94 L160,95 L173,117 L181,131 L195,155 L199,162 L199,164 L-93,164 L-92,160 L-86,149 L-78,135 L-64,111 L-54,94 L10,94 L13,93 L4,77 L-9,55 L-15,44 L-19,37 L-18,32 L-7,12 Z " fill="#9B59D0" transform="translate(334,40)"/>
<path d="M0,0 L77,0 L80,1 L88,15 L103,41 L113,58 L114,59 L129,33 L139,16 L148,1 L149,0 L184,0 L189,2 L199,19 L205,29 L207,33 L206,39 L196,57 L188,70 L179,86 L167,107 L155,128 L156,132 L166,150 L168,153 L168,156 L170,156 L176,167 L185,183 L186,186 L173,209 L162,228 L148,252 L147,254 L145,254 L139,242 L133,232 L125,219 L115,201 L107,188 L101,177 L93,164 L87,153 L78,137 L69,122 L62,109 L62,107 L60,107 L54,96 L51,91 L51,88 L49,88 L45,80 L36,64 L30,54 L22,40 L15,29 L9,18 L4,9 L0,2 Z " fill="#57148D" transform="translate(447,40)"/>
<path d="M0,0 L4,5 L13,21 L26,44 L35,59 L40,68 L38,73 L31,86 L20,105 L7,127 L7,128 L75,129 L83,142 L94,161 L93,166 L79,191 L75,197 L-34,198 L-43,214 L-50,225 L-55,235 L-66,254 L-146,254 L-144,248 L-128,221 L-114,196 L-104,179 L-88,151 L-74,127 L-62,106 L-54,93 L-48,82 L-33,56 L-24,41 L-18,30 L-3,4 Z " fill="#9B59D0" transform="translate(691,138)"/>
<path d="M0,0 L293,0 L291,4 L281,22 L267,46 L254,69 L186,70 L188,74 L202,99 L216,123 L219,129 L206,152 L199,164 L160,164 L154,155 L140,130 L131,116 L125,105 L115,87 L111,81 L105,70 L40,69 L34,60 L21,37 L7,13 L1,2 Z " fill="#57148D" transform="translate(436,398)"/>
<path d="M0,0 L72,0 L71,4 L62,19 L56,30 L46,47 L37,63 L23,87 L14,103 L4,120 L-12,148 L-20,161 L-26,172 L-34,186 L-46,207 L-57,226 L-70,248 L-73,253 L-75,253 L-85,235 L-99,211 L-113,187 L-112,181 L-100,161 L-94,150 L-82,130 L-80,125 L-149,125 L-159,107 L-167,93 L-166,87 L-151,61 L-149,57 L-39,57 L-37,52 L-23,27 L-14,12 L-8,1 Z " fill="#57148D" transform="translate(352,210)"/>
</svg>
