<?xml version="1.0" encoding="UTF-8"?>
<!-- Generator: visioncortex VTracer 0.6.5 -->
<svg version="1.1" xmlns="http://www.w3.org/2000/svg" width="960" height="622">
<path d="M0,0 L41,0 L51,17 L66,43 L74,56 L80,67 L89,83 L97,97 L168,98 L176,111 L188,132 L198,149 L208,167 L208,168 L-96,168 L-94,162 L-87,151 L-81,140 L-68,117 L-57,98 L17,98 L6,79 L-3,64 L-9,53 L-19,36 L-18,31 L-5,8 Z " fill="#9B59D0" transform="translate(328,31)"/>
<path d="M0,0 L2,0 L8,11 L17,27 L31,51 L44,74 L53,89 L65,110 L77,131 L91,155 L101,172 L107,182 L113,193 L125,214 L140,239 L146,250 L153,263 L72,263 L59,240 L48,221 L37,202 L37,200 L33,204 L24,220 L16,234 L8,248 L-1,263 L-42,263 L-53,244 L-61,230 L-60,225 L-46,201 L-31,175 L-16,149 L-6,132 L-7,126 L-21,102 L-35,77 L-40,68 L-29,49 L-18,30 L-4,6 Z " fill="#9B59D0" transform="translate(370,308)"/>
<path d="M0,0 L4,4 L18,29 L34,56 L41,68 L39,73 L31,87 L17,111 L4,134 L79,134 L93,159 L98,167 L96,172 L83,195 L79,202 L-36,203 L-51,228 L-57,239 L-69,260 L-72,264 L-151,264 L-150,260 L-137,237 L-127,220 L-115,199 L-105,182 L-92,159 L-78,135 L-67,116 L-53,92 L-44,76 L-30,52 L-14,24 Z " fill="#9B59D0" transform="translate(699,133)"/>
<path d="M0,0 L304,0 L302,6 L288,30 L278,47 L266,68 L265,69 L192,70 L194,74 L205,94 L219,118 L227,132 L226,137 L220,147 L214,158 L208,168 L167,168 L161,157 L147,132 L135,112 L127,98 L118,82 L114,76 L111,70 L43,70 L39,69 L34,59 L19,34 L13,23 L4,8 Z " fill="#57148D" transform="translate(433,403)"/>
<path d="M0,0 L80,0 L89,16 L100,35 L112,56 L116,62 L118,63 L120,58 L132,37 L146,13 L154,0 L194,0 L203,15 L213,32 L212,38 L201,57 L187,81 L178,96 L172,107 L158,131 L159,137 L168,153 L178,170 L185,181 L191,192 L190,198 L176,223 L170,232 L164,243 L155,259 L151,263 L143,249 L132,230 L121,211 L113,197 L108,188 L108,186 L106,186 L103,180 L103,177 L101,177 L100,172 L98,172 L93,162 L87,152 L78,136 L77,132 L75,132 L69,121 L53,93 L45,80 L41,72 L30,53 L25,45 L19,34 L9,17 L3,7 L0,2 Z " fill="#57148D" transform="translate(447,31)"/>
<path d="M0,0 L79,0 L78,4 L72,14 L66,25 L56,42 L47,58 L33,82 L24,98 L14,115 L-2,143 L-16,167 L-26,184 L-35,200 L-49,224 L-64,250 L-72,263 L-76,258 L-90,234 L-105,208 L-112,196 L-110,190 L-98,170 L-92,159 L-84,145 L-77,134 L-76,131 L-150,130 L-162,109 L-167,101 L-167,98 L-169,98 L-168,93 L-156,72 L-150,62 L-35,62 L-33,57 L-18,31 L-4,7 Z " fill="#57148D" transform="translate(342,205)"/>
</svg>
