<?xml version="1.0" encoding="UTF-8"?>
<!-- Generator: visioncortex VTracer 0.6.5 -->
<svg version="1.1" xmlns="http://www.w3.org/2000/svg" width="960" height="622">
<path d="M0,0 L3,1 L14,21 L27,43 L39,64 L54,90 L64,107 L70,117 L76,128 L88,148 L94,159 L107,182 L117,199 L132,225 L144,245 L150,256 L157,268 L166,284 L166,285 L86,285 L79,274 L65,249 L49,222 L43,211 L36,221 L31,231 L25,241 L10,267 L0,284 L-1,285 L-41,285 L-50,270 L-61,251 L-59,246 L-47,225 L-33,201 L-18,175 L-3,149 L0,143 L2,143 L-1,135 L-15,111 L-27,90 L-39,69 L-34,59 L-20,35 L-11,19 Z " fill="#9B59D0" transform="translate(357,308)"/>
<path d="M0,0 L40,0 L48,13 L63,39 L78,65 L86,78 L92,89 L101,105 L103,110 L187,110 L197,127 L209,148 L223,172 L226,177 L226,179 L-103,179 L-97,167 L-90,156 L-84,145 L-71,122 L-64,110 L23,110 L17,99 L9,86 L3,75 L-5,61 L-13,48 L-19,37 L-20,34 L-9,15 Z " fill="#9B59D0" transform="translate(316,9)"/>
<path d="M0,0 L79,0 L85,9 L93,23 L101,37 L112,56 L120,70 L122,75 L124,75 L126,69 L135,54 L147,33 L161,9 L167,0 L206,0 L212,10 L220,24 L226,34 L224,39 L209,65 L194,91 L182,111 L176,122 L164,143 L165,148 L176,167 L178,170 L178,173 L180,173 L186,184 L201,210 L204,217 L194,235 L180,259 L165,285 L161,281 L155,270 L145,254 L141,246 L136,237 L136,235 L134,235 L129,225 L115,201 L111,194 L109,191 L109,188 L107,188 L106,183 L104,183 L99,173 L92,162 L86,151 L77,135 L67,118 L59,105 L55,97 L50,88 L50,86 L48,86 L43,76 L39,70 L34,61 L34,58 L32,58 L26,47 L14,27 L8,15 L0,2 Z " fill="#57148D" transform="translate(447,9)"/>
<path d="M0,0 L2,1 L8,12 L17,28 L31,52 L41,69 L33,83 L21,104 L7,128 L-1,142 L-2,145 L84,145 L90,154 L103,177 L104,179 L89,206 L85,213 L-43,213 L-45,218 L-57,239 L-64,250 L-70,261 L-79,277 L-84,285 L-164,285 L-158,273 L-144,249 L-131,226 L-121,209 L-106,183 L-92,159 L-79,136 L-69,119 L-57,98 L-42,72 L-28,48 L-16,27 L-2,3 Z " fill="#9B59D0" transform="translate(718,122)"/>
<path d="M0,0 L328,0 L322,12 L309,34 L301,48 L292,64 L289,69 L202,69 L217,95 L226,110 L232,121 L245,143 L243,149 L235,162 L225,179 L186,179 L183,176 L177,165 L168,149 L158,132 L145,109 L139,100 L133,89 L123,71 L122,70 L39,69 L31,56 L22,40 L8,16 L0,2 Z " fill="#57148D" transform="translate(428,414)"/>
<path d="M0,0 L80,0 L75,10 L64,29 L52,50 L45,62 L31,86 L22,102 L14,115 L8,126 L-4,147 L-11,159 L-19,173 L-33,197 L-45,218 L-59,242 L-72,265 L-81,280 L-85,284 L-98,261 L-109,242 L-124,216 L-116,201 L-101,175 L-87,151 L-81,140 L-168,140 L-174,129 L-187,107 L-185,102 L-174,82 L-168,72 L-41,71 L-33,58 L-17,30 L-2,4 Z " fill="#57148D" transform="translate(335,195)"/>
<path d="M0,0 L86,0 L86,3 L0,3 L0,7 L-2,7 L-2,9 L-4,9 L-2,4 Z " fill="#9B59D0" transform="translate(252,119)"/>
</svg>
