<?xml version="1.0" encoding="UTF-8"?>
<!-- Generator: visioncortex VTracer 0.6.5 -->
<svg version="1.1" xmlns="http://www.w3.org/2000/svg" width="960" height="622">
<path d="M0,0 L3,1 L9,12 L17,25 L23,36 L38,62 L52,86 L54,92 L56,92 L63,106 L75,125 L81,136 L91,154 L107,181 L116,197 L124,211 L130,221 L142,242 L148,252 L148,254 L68,254 L54,231 L50,223 L41,208 L34,195 L30,200 L24,212 L12,232 L0,253 L-1,254 L-41,254 L-48,242 L-54,231 L-60,221 L-60,216 L-50,199 L-39,180 L-28,161 L-14,137 L-8,127 L-9,121 L-23,97 L-39,69 L-34,59 L-27,48 L-21,37 L-11,19 L-3,6 Z " fill="#9B59D0" transform="translate(375,308)"/>
<path d="M0,0 L40,0 L46,10 L55,25 L63,39 L68,48 L77,63 L93,91 L95,94 L160,95 L170,112 L182,133 L198,160 L199,164 L-93,164 L-92,160 L-82,142 L-71,123 L-60,104 L-55,95 L13,94 L7,82 L-2,67 L-9,55 L-15,44 L-19,37 L-18,32 L-7,12 L-5,12 L-4,7 Z " fill="#9B59D0" transform="translate(334,40)"/>
<path d="M0,0 L79,0 L87,13 L96,29 L101,37 L101,40 L103,40 L109,52 L113,58 L113,60 L115,60 L116,56 L129,33 L143,9 L148,0 L188,0 L194,11 L199,19 L205,30 L208,35 L196,57 L188,70 L182,81 L174,95 L166,108 L160,119 L155,127 L156,133 L164,146 L169,155 L175,165 L181,176 L186,184 L184,190 L178,200 L164,224 L157,236 L152,245 L147,254 L145,254 L139,243 L127,222 L118,207 L113,198 L107,188 L101,177 L89,156 L86,151 L74,131 L70,123 L70,121 L68,121 L62,110 L53,94 L51,88 L49,88 L43,77 L37,66 L32,58 L27,49 L27,46 L25,46 L19,35 L4,9 L0,2 Z " fill="#57148D" transform="translate(447,40)"/>
<path d="M0,0 L2,0 L9,12 L15,23 L26,41 L32,52 L40,66 L41,70 L35,80 L29,91 L21,105 L11,122 L7,129 L76,129 L84,142 L90,152 L95,161 L94,165 L88,177 L76,197 L-33,198 L-43,215 L-49,226 L-65,254 L-145,254 L-143,248 L-133,231 L-117,203 L-107,186 L-95,165 L-80,139 L-69,120 L-59,103 L-44,77 L-36,63 L-22,39 L-6,11 Z " fill="#9B59D0" transform="translate(690,138)"/>
<path d="M0,0 L292,0 L284,15 L278,25 L269,41 L261,54 L255,65 L253,69 L185,70 L190,80 L204,104 L218,129 L210,143 L204,153 L199,162 L198,163 L157,163 L157,159 L155,159 L146,143 L141,134 L127,110 L120,98 L107,75 L104,70 L39,69 L31,56 L19,35 L5,11 L0,2 Z " fill="#57148D" transform="translate(437,398)"/>
<path d="M0,0 L79,0 L77,5 L71,16 L65,26 L55,44 L43,65 L29,89 L19,106 L10,122 L6,128 L0,139 L-11,158 L-23,179 L-26,183 L-31,193 L-41,210 L-54,233 L-66,253 L-70,249 L-85,223 L-96,204 L-103,192 L-103,190 L-105,190 L-106,183 L-91,157 L-77,133 L-73,125 L-141,125 L-148,114 L-152,107 L-160,93 L-159,87 L-145,63 L-142,57 L-33,56 L-28,49 L-22,38 L-10,17 Z " fill="#57148D" transform="translate(345,210)"/>
<path d="M0,0 L107,0 L123,1 L123,2 L5,2 L7,6 L8,12 L11,14 L13,23 L9,18 L0,2 Z " fill="#57148D" transform="translate(437,398)"/>
</svg>
